#N canvas 655 65 1694 1142 24;
#X obj 79 71 loadbang;
#X obj 300 73 loadbang;
#X msg 297 148 60;
#X floatatom 294 208 5 0 0 0 - - -;
#X obj 133 276 /;
#X obj 133 397 send 4th_time;
#X obj 580 111 send ON;
#X obj 577 80 tgl 15 0 empty empty empty 17 7 0 10 -262144 -1 -1 1
1;
#X obj 872 116 receive whole_note;
#X obj 709 40 receive ON;
#X obj 709 101 sel 0;
#X obj 869 187 int 1;
#X obj 1036 228 + 1;
#X floatatom 870 268 5 0 0 0 - - -;
#X obj 872 362 % 2;
#X obj 870 436 + 1;
#X obj 870 508 sel 1;
#X obj 872 579 bng 15 250 50 0 empty empty empty 17 7 0 10 -262144
-1 -1;
#X obj 871 608 tgl 15 0 empty empty empty 17 7 0 10 -262144 -1 -1 0
1;
#X obj 141 571 receive ON;
#X obj 282 466 receive 4th_time;
#X obj 284 530 * 4;
#X floatatom 299 602 5 0 0 0 - - -;
#X obj 283 640 send whole_time;
#X obj 143 647 metro;
#X obj 145 688 bng 15 250 50 0 empty empty empty 17 7 0 10 -262144
-1 -1;
#X obj 144 720 send whole_note;
#X obj 525 536 receive ON;
#X obj 666 431 receive 4th_time;
#X floatatom 665 559 5 0 0 0 - - -;
#X obj 527 612 metro;
#X obj 522 650 bng 15 250 50 0 empty empty empty 17 7 0 10 -262144
-1 -1;
#X obj 668 495 * 1;
#X obj 528 685 send 4th_note;
#X obj 129 800 r Chord;
#X obj 121 844 tgl 15 0 empty empty empty 17 7 0 10 -262144 -1 -1 0
1;
#X obj 119 874 sel 0;
#X obj 125 901 bng 15 250 50 0 empty empty empty 17 7 0 10 -262144
-1 -1;
#X obj 162 905 bng 15 250 50 0 empty empty empty 17 7 0 10 -262144
-1 -1;
#X msg 124 926 130.81;
#X msg 227 925 87.31;
#X floatatom 123 962 5 0 0 0 - - -;
#X obj 121 991 phasor~;
#X obj 125 1047 lop~ 100;
#X obj 344 876 receive ON;
#X obj 522 874 receive whole_time;
#X obj 526 931 * 2;
#X floatatom 521 979 5 0 0 0 - - -;
#X obj 528 1019 - 100;
#X obj 445 1067 delay;
#X msg 447 1121 0 100;
#X msg 343 921 1 500;
#X obj 328 1096 line;
#X obj 779 881 receive ON;
#X obj 781 922 sel 0;
#X obj 781 964 delay 5;
#X obj 130 1103 *~;
#X obj 144 1148 send~ Bass;
#X obj 997 898 receive~ Bass;
#X obj 947 1095 dac~;
#X obj 1307 858 osc~ 200;
#X msg 717 166 -1;
#X msg 400 531;
#X floatatom 369 584 5 0 0 0 - - -;
#X msg 274 326;
#X floatatom 156 332 5 0 0 0 - - -;
#X obj 194 57 bng 15 250 50 0 empty empty empty 17 7 0 10 -262144 -1
-1;
#X obj 193 136 t b b;
#X msg 108 203 60000;
#X obj 868 637 send Chord;
#X obj 663 1128 send envFollow;
#X obj 730 1032 print;
#X connect 0 0 67 0;
#X connect 1 0 7 0;
#X connect 2 0 3 0;
#X connect 3 0 4 1;
#X connect 4 0 65 0;
#X connect 7 0 6 0;
#X connect 8 0 11 0;
#X connect 9 0 10 0;
#X connect 10 0 61 0;
#X connect 11 0 12 0;
#X connect 11 0 13 0;
#X connect 12 0 11 1;
#X connect 13 0 14 0;
#X connect 14 0 15 0;
#X connect 15 0 16 0;
#X connect 16 0 17 0;
#X connect 17 0 18 0;
#X connect 18 0 69 0;
#X connect 19 0 24 0;
#X connect 20 0 21 0;
#X connect 21 0 22 0;
#X connect 22 0 23 0;
#X connect 22 0 24 1;
#X connect 24 0 25 0;
#X connect 25 0 26 0;
#X connect 27 0 30 0;
#X connect 28 0 32 0;
#X connect 29 0 30 1;
#X connect 30 0 31 0;
#X connect 31 0 33 0;
#X connect 32 0 29 0;
#X connect 34 0 35 0;
#X connect 35 0 36 0;
#X connect 36 0 37 0;
#X connect 36 1 38 0;
#X connect 37 0 39 0;
#X connect 38 0 40 0;
#X connect 39 0 41 0;
#X connect 40 0 41 0;
#X connect 41 0 42 0;
#X connect 42 0 43 0;
#X connect 43 0 56 0;
#X connect 44 0 51 0;
#X connect 45 0 46 0;
#X connect 46 0 47 0;
#X connect 47 0 48 0;
#X connect 48 0 49 1;
#X connect 49 0 50 0;
#X connect 50 0 52 0;
#X connect 51 0 52 0;
#X connect 52 0 56 1;
#X connect 52 0 70 0;
#X connect 52 0 71 0;
#X connect 53 0 54 0;
#X connect 54 0 55 0;
#X connect 55 0 50 0;
#X connect 56 0 57 0;
#X connect 58 0 59 0;
#X connect 58 0 59 1;
#X connect 61 0 11 0;
#X connect 65 0 5 0;
#X connect 66 0 67 0;
#X connect 67 0 68 0;
#X connect 67 1 2 0;
#X connect 68 0 4 0;
