#N canvas 738 81 450 300 12;
#X obj 96 110 osc~ 261.63;
#X obj 97 142 osc~ 329.63;
#X obj 96 174 osc~ 329.63;
#X obj 229 307 *~ 1.5;
#X obj 229 328 osc~;
#X obj 239 317 *~ 1.5;
#X obj 239 338 osc~;
#X obj 302 113 dac~;
#X obj 303 140 dac~;
#X obj 302 178 dac~;
#X obj 214 113 *~ 0.05;
#X obj 215 140 *~ 0.05;
#X obj 215 174 *~ 0.05;
#X connect 0 0 10 0;
#X connect 1 0 11 0;
#X connect 2 0 12 0;
#X connect 3 0 4 0;
#X connect 5 0 6 0;
#X connect 10 0 7 0;
#X connect 11 0 8 0;
#X connect 12 0 9 0;
