#N canvas 0 0 1440 801 12;
#X declare -path Abstractions;
#X obj 119 263 mtof;
#X obj 500 45 declare -path Abstractions;
#X obj 128 321 tri~;
#X obj 128 385 *~;
#X obj 133 519 dac~;
#X obj 606 260 loadbang;
#X msg 386 361 1;
#X msg 432 368 0;
#X obj 430 567 adsr, f 27;
#X msg 475 472 100;
#X msg 550 490 50;
#X msg 587 472 100;
#X msg 530 460 50;
#X obj 115 123 notein;
#X obj 391 264 trigger b;
#X obj 413 319 del 500;
#X obj 473 170 / 127;
#X obj 131 426 *~ 0.3;
#X obj 167 483 rev1~;
#X connect 0 0 2 0;
#X connect 2 0 3 0;
#X connect 3 0 17 0;
#X connect 5 0 9 0;
#X connect 5 0 12 0;
#X connect 5 0 10 0;
#X connect 5 0 11 0;
#X connect 6 0 8 0;
#X connect 7 0 8 0;
#X connect 8 0 3 1;
#X connect 9 0 8 2;
#X connect 10 0 8 4;
#X connect 11 0 8 5;
#X connect 12 0 8 3;
#X connect 13 0 14 0;
#X connect 13 0 0 0;
#X connect 13 1 16 0;
#X connect 14 0 6 0;
#X connect 14 0 15 0;
#X connect 15 0 7 0;
#X connect 16 0 8 1;
#X connect 17 0 4 1;
#X connect 17 0 4 0;
