#N canvas 1515 166 801 803 12;
#X obj 74 164 fm-osc2~;
#X obj 75 33 sig~;
#X obj 104 313 fm-osc2~;
#X obj 74 197 *~;
#X obj 105 223 *~;
#X obj 75 247 *~;
#X obj 75 6 inlet pitch;
#X obj 113 29 inlet ratio1;
#X obj 231 8 inlet~ depth1;
#X obj 247 38 inlet depth12;
#X obj 248 179 clip 0 1;
#X obj 126 56 inlet ratio12;
#X obj 142 80 inlet ratio2;
#X obj 277 67 inlet~ depth2;
#X obj 359 9 inlet~ feed1;
#X obj 371 37 inlet~ feed2;
#X obj 371 271 clip~ 0 100;
#X obj 356 114 clip~ 0 100;
#X obj 105 349 outlet~ complexfm;
#X obj 255 347 outlet~ simplefm;
#X obj 230 141 clip~ 0 100;
#X obj 274 231 clip~ 0 100;
#X connect 0 0 3 0;
#X connect 0 0 19 0;
#X connect 1 0 0 0;
#X connect 1 0 4 0;
#X connect 2 0 18 0;
#X connect 3 0 5 0;
#X connect 4 0 5 1;
#X connect 5 0 2 0;
#X connect 6 0 1 0;
#X connect 7 0 0 2;
#X connect 8 0 20 0;
#X connect 9 0 10 0;
#X connect 10 0 3 1;
#X connect 11 0 4 1;
#X connect 12 0 2 2;
#X connect 13 0 21 0;
#X connect 14 0 17 0;
#X connect 15 0 16 0;
#X connect 16 0 2 1;
#X connect 17 0 0 1;
#X connect 20 0 0 3;
#X connect 21 0 2 3;
