#N canvas 3902 649 1203 670 12;
#X obj 73 202 osc~;
#X obj 73 279 osc~;
#X obj 71 320 outlet~;
#X obj 73 231 *~;
#X obj 20 106 *~;
#X obj 74 145 +~;
#X obj 73 256 +~;
#X obj 19 64 receive~ \$0-feedback;
#X obj 128 295 send~ \$0-feedback;
#X obj 241 42 inlet~ feedback;
#X obj 468 37 inlet~ depth;
#X obj 60 8 inlet~ carr_pitch;
#X obj 352 45 inlet~ fm_ratio;
#X obj 191 194 *~;
#X connect 0 0 3 0;
#X connect 1 0 2 0;
#X connect 1 0 8 0;
#X connect 3 0 6 0;
#X connect 4 0 5 0;
#X connect 5 0 0 0;
#X connect 6 0 1 0;
#X connect 7 0 4 0;
#X connect 9 0 4 1;
#X connect 10 0 3 1;
#X connect 11 0 5 1;
#X connect 11 0 13 0;
#X connect 12 0 13 1;
#X connect 13 0 6 1;
