#N canvas 208 208 852 666 12;
#X obj 74 141 osc~;
#X obj 74 221 osc~;
#X obj 249 29 inlet~;
#X obj 72 262 outlet~;
#X obj 172 26 inlet~;
#X obj 74 173 *~;
#X obj 70 23 inlet~;
#X obj 74 198 +~;
#X connect 0 0 5 0;
#X connect 1 0 3 0;
#X connect 2 0 7 1;
#X connect 4 0 5 1;
#X connect 5 0 7 0;
#X connect 6 0 0 0;
#X connect 7 0 1 0;
