#N canvas 1165 370 1031 815 12;
#X floatatom 68 62 5 0 0 0 - - - 0;
#X obj 68 85 t f f;
#X obj 68 159 pack f f f;
#X msg 68 183 \$1 \, \$2 \$3;
#X obj 68 207 vline~;
#X obj 70 305 *~;
#X floatatom 139 66 5 0 1000 0 dur - - 0;
#X obj 98 123 +;
#X obj 130 97 * 44.1;
#X floatatom 200 58 5 0.1 2 0 speed - - 0;
#X obj 200 81 t b f;
#X obj 191 119 / 1;
#X obj 71 11 inlet;
#X obj 214 293 vline~;
#X msg 243 254 1 20 \, 0 20 \$1;
#X obj 250 215 f;
#X obj 305 180 - 20;
#X obj 251 176 t b;
#X obj 70 329 outlet~;
#X msg 332 72 set \$1;
#X obj 332 35 inlet;
#X obj 200 22 inlet;
#X obj 137 23 inlet;
#X obj 68 231 tabread4~ audio;
#X connect 0 0 1 0;
#X connect 1 0 2 0;
#X connect 1 1 7 0;
#X connect 2 0 3 0;
#X connect 3 0 4 0;
#X connect 3 0 17 0;
#X connect 4 0 23 0;
#X connect 5 0 18 0;
#X connect 6 0 8 0;
#X connect 6 0 11 0;
#X connect 6 0 16 0;
#X connect 7 0 2 1;
#X connect 8 0 7 1;
#X connect 9 0 10 0;
#X connect 10 0 11 0;
#X connect 10 1 11 1;
#X connect 11 0 2 2;
#X connect 12 0 0 0;
#X connect 13 0 5 1;
#X connect 14 0 13 0;
#X connect 15 0 14 0;
#X connect 16 0 15 1;
#X connect 17 0 15 0;
#X connect 19 0 23 0;
#X connect 20 0 19 0;
#X connect 21 0 9 0;
#X connect 22 0 6 0;
#X connect 23 0 5 0;
