#N canvas 312 312 711 471 12;
#X obj 136 54 list-iter;
#X msg 100 217 1 3 4 6 8 9 12 13 15 16 18 20 21 24 25;
#X msg 130 143 add2 \$1;
#X obj 41 16 inlet;
#X obj 209 29 inlet;
#X obj 101 249 outlet;
#X msg 150 183 set;
#X obj 139 110 moses \$1;
#X msg 265 198 27 28 30 32 33 36 37 39 40 42 44 45 48 49 51 52 54 56 57 60;
#X msg 262 166 add2 \$1;
#X msg 346 165 set;
#X obj 266 243 outlet;
#X obj 95 10 t b b l b;
#X connect 0 0 7 0;
#X connect 1 0 5 0;
#X connect 2 0 1 0;
#X connect 3 0 12 0;
#X connect 4 0 7 1;
#X connect 6 0 1 0;
#X connect 7 0 2 0;
#X connect 7 1 9 0;
#X connect 8 0 11 0;
#X connect 9 0 8 0;
#X connect 10 0 8 0;
#X connect 12 0 1 0;
#X connect 12 1 8 0;
#X connect 12 2 0 0;
#X connect 12 3 10 0;
#X connect 12 3 6 0;
