#N canvas 26 26 450 300 12;
#X obj 69 50 inlet;
#X obj 69 122 list;
#X obj 69 146 list split 1;
#X obj 69 188 outlet;
#X obj 69 74 t b l;
#X obj 69 98 until;
#X obj 131 177 route bang;
#X obj 131 201 t b;
#X connect 0 0 4 0;
#X connect 1 0 2 0;
#X connect 2 0 3 0;
#X connect 2 1 6 0;
#X connect 4 0 5 0;
#X connect 4 1 1 1;
#X connect 5 0 1 0;
#X connect 6 0 7 0;
#X connect 6 1 1 1;
#X connect 7 0 5 1;
