#N canvas 431 186 284 455 12;
#N canvas 1 142 199 245 list-drip 0;
#X obj 42 39 inlet;
#X obj 42 154 list store;
#X obj 42 85 until;
#X obj 42 108 f;
#X obj 72 108 + 1;
#X msg 42 131 get \$1 1;
#X obj 85 86 0;
#X obj 42 177 outlet;
#X obj 109 177 outlet;
#X obj 42 62 t b b a;
#X connect 0 0 9 0;
#X connect 1 0 7 0;
#X connect 1 1 8 0;
#X connect 1 1 2 1;
#X connect 2 0 3 0;
#X connect 3 0 5 0;
#X connect 3 0 4 0;
#X connect 4 0 3 1;
#X connect 5 0 1 0;
#X connect 6 0 3 1;
#X connect 9 0 2 0;
#X connect 9 1 6 0;
#X connect 9 2 1 1;
#X restore 43 84 pd list-drip;
#X obj 43 107 route float symbol;
#X obj 43 130 makefilename %d;
#X obj 43 153 list fromsymbol;
#X obj 43 176 list 32;
#X obj 43 222 list trim;
#X obj 43 245 list store;
#X obj 43 199 list prepend append;
#X obj 43 268 t l l;
#X obj 43 337 list split;
#X obj 110 291 list length;
#X obj 110 314 - 1;
#X obj 43 61 t a b;
#X obj 43 38 inlet;
#X obj 43 360 list tosymbol;
#X obj 43 383 outlet;
#X connect 0 0 1 0;
#X connect 0 1 6 0;
#X connect 1 0 2 0;
#X connect 1 1 3 0;
#X connect 2 0 3 0;
#X connect 3 0 4 0;
#X connect 4 0 7 0;
#X connect 5 0 6 0;
#X connect 6 0 8 0;
#X connect 7 0 5 0;
#X connect 8 0 9 0;
#X connect 8 1 10 0;
#X connect 9 0 14 0;
#X connect 10 0 11 0;
#X connect 11 0 9 1;
#X connect 12 0 0 0;
#X connect 12 1 6 1;
#X connect 13 0 12 0;
#X connect 14 0 15 0;
