#N canvas 234 234 450 300 12;
#X obj 82 30 inlet;
#X obj 82 84 list split;
#X obj 153 27 inlet;
#X obj 109 121 list split 1;
#X obj 122 163 outlet;
#X connect 0 0 1 0;
#X connect 1 1 3 0;
#X connect 2 0 1 1;
#X connect 3 0 4 0;
