#N canvas 130 130 1099 698 12;
#X obj 15 162 cos~;
#X obj 13 44 phasor~;
#X obj 13 68 +~;
#X obj 12 7 inlet;
#X obj 80 9 inlet;
#X obj 14 191 outlet~;
#X text 82 103 cosine osc with smoothed variable phase;
#X obj 74 69 line~;
#X obj 13 131 expr~ modf($v1);
#X msg 78 41 \$1 5;
#X obj 251 163 expr~ $v1 *2 - 1;
#X obj 254 203 outlet~;
#X obj 382 200 outlet~;
#X obj 383 165 expr~ if($v1 < 0 \, -1 \, 1);
#X obj 85 241 expr~ if($v1 < 0 \, $v1 * 2+ 1 \, (1 - $v1) *2 -1);
#X obj 86 271 outlet~;
#X connect 0 0 5 0;
#X connect 0 0 13 0;
#X connect 1 0 2 0;
#X connect 2 0 8 0;
#X connect 3 0 1 0;
#X connect 4 0 9 0;
#X connect 7 0 2 1;
#X connect 8 0 0 0;
#X connect 8 0 10 0;
#X connect 9 0 7 0;
#X connect 10 0 11 0;
#X connect 10 0 14 0;
#X connect 13 0 12 0;
#X connect 14 0 15 0;
