#N canvas 208 208 1413 623 12;
#X obj 46 148 *~;
#X obj 61 115 one-;
#X obj 107 122 *~;
#X obj 38 -9 inlet;
#X obj 72 178 +~;
#X obj 72 202 outlet~;
#X obj 155 189 clip 0 1;
#X obj 45 81 osc~ 1;
#X obj 39 14 list trim;
#X obj 39 48 route freq phase;
#X text 218 24 interpolate sine and tri;
#X obj 104 93 tri~;
#X obj 93 71 + 0.5;
#X obj 174 79 loadbang;
#X msg 175 104 0.5;
#X connect 0 0 4 0;
#X connect 1 0 0 1;
#X connect 2 0 4 1;
#X connect 3 0 8 0;
#X connect 4 0 5 0;
#X connect 6 0 1 0;
#X connect 6 0 2 1;
#X connect 7 0 0 0;
#X connect 8 0 9 0;
#X connect 9 0 7 0;
#X connect 9 0 11 0;
#X connect 9 1 11 1;
#X connect 9 1 12 0;
#X connect 9 2 6 0;
#X connect 11 0 2 0;
#X connect 12 0 7 1;
#X connect 13 0 14 0;
#X connect 14 0 7 1;
