#N canvas 208 168 978 913 12;
#X obj 24 41 expr int($f1) \; $f1-int($f1);
#X obj 24 77 pack;
#X obj 74 79 route 0 1 2 3;
#X obj 23 132 t f b b;
#X obj 86 132 t f b b;
#X obj 149 131 t f b b;
#X obj 22 190 osc_tri~;
#X obj 87 193 tri_saw~;
#X obj 151 192 saw_squ~;
#X obj 22 223 *~;
#X obj 118 232 *~;
#X obj 182 224 *~;
#X msg 45 157 0;
#X msg 76 158 1;
#X msg 111 158 0;
#X msg 142 159 1;
#X msg 175 157 0;
#X msg 214 157 1;
#X obj 22 260 +~;
#X obj 37 302 +~;
#X obj 147 -2 inlet;
#X obj 37 326 outlet~;
#X obj 23 9 route float;
#X msg 192 92 1;
#X connect 0 0 1 0;
#X connect 0 1 1 1;
#X connect 1 0 2 0;
#X connect 2 0 3 0;
#X connect 2 1 4 0;
#X connect 2 2 5 0;
#X connect 2 3 23 0;
#X connect 3 0 6 0;
#X connect 3 1 12 0;
#X connect 3 2 13 0;
#X connect 4 0 7 0;
#X connect 4 1 14 0;
#X connect 4 2 15 0;
#X connect 5 0 8 0;
#X connect 5 1 16 0;
#X connect 5 2 17 0;
#X connect 6 0 9 0;
#X connect 7 0 10 0;
#X connect 8 0 11 0;
#X connect 9 0 18 0;
#X connect 10 0 18 1;
#X connect 11 0 19 1;
#X connect 12 0 10 1;
#X connect 12 0 11 1;
#X connect 13 0 9 1;
#X connect 14 0 9 1;
#X connect 14 0 11 1;
#X connect 15 0 10 1;
#X connect 16 0 9 1;
#X connect 16 0 10 1;
#X connect 17 0 11 1;
#X connect 18 0 19 0;
#X connect 19 0 21 0;
#X connect 20 0 22 0;
#X connect 22 0 0 0;
#X connect 22 1 6 0;
#X connect 22 1 7 0;
#X connect 22 1 8 0;
#X connect 23 0 5 0;
