#N canvas 1292 298 1198 781 12;
#X floatatom 13 90 5 0 0 0 - - - 0;
#X obj 14 69 expr (($f1 +1) *0.5)*$f2;
#X obj 13 116 expr if(($f1 - int($f1)) > 0.5 \, int($f1) + 1 \, int($f1));
#X obj 178 46 list length;
#X obj 11 187 list split;
#X obj 46 211 list split 1;
#X obj 11 164 list;
#X obj 12 139 t b f;
#X obj 45 238 mtof;
#X obj 12 12 inlet;
#X obj 179 14 inlet;
#X text 218 13 pitch list;
#X text 54 12 value;
#X obj 45 262 outlet;
#X connect 0 0 2 0;
#X connect 1 0 0 0;
#X connect 2 0 7 0;
#X connect 3 0 1 1;
#X connect 4 1 5 0;
#X connect 5 0 8 0;
#X connect 6 0 4 0;
#X connect 7 0 6 0;
#X connect 7 1 4 1;
#X connect 8 0 13 0;
#X connect 9 0 1 0;
#X connect 10 0 3 0;
#X connect 10 0 6 1;
