#N canvas 1235 432 1393 683 12;
#X obj 82 35 inlet;
#X obj 80 207 *~;
#X obj 241 179 expr~ $v1 * 0.5+0.5;
#X obj 244 115 *;
#X obj 241 155 osc~;
#X obj 287 41 inlet;
#X obj 404 45 inlet;
#X obj 76 140 selector4~;
#X obj 92 108 osc~;
#X obj 130 109 tri~;
#X obj 165 111 saw~;
#X obj 204 113 squ~;
#X obj 411 96 loadbang;
#X msg 411 120 0;
#X obj 80 250 outlet~;
#X connect 0 0 3 0;
#X connect 0 0 8 0;
#X connect 0 0 9 0;
#X connect 0 0 10 0;
#X connect 0 0 11 0;
#X connect 1 0 14 0;
#X connect 2 0 1 1;
#X connect 3 0 4 0;
#X connect 4 0 2 0;
#X connect 5 0 3 1;
#X connect 6 0 7 0;
#X connect 7 0 1 0;
#X connect 8 0 7 1;
#X connect 9 0 7 2;
#X connect 10 0 7 3;
#X connect 11 0 7 4;
#X connect 12 0 13 0;
#X connect 13 0 7 0;
