#N canvas 2160 99 1009 721 12;
#X obj 82 35 inlet;
#X obj 80 233 *~;
#X obj 241 179 expr~ $v1 * 0.5+0.5;
#X obj 244 115 *;
#X obj 241 155 osc~;
#X obj 287 41 inlet;
#X obj 87 109 tri~;
#X obj 122 110 saw~;
#X obj 160 110 squ~;
#X obj 80 250 outlet~;
#X obj 82 154 *~;
#X obj 122 134 *~;
#X obj 160 134 *~;
#X obj 132 37 inlet;
#X obj 180 37 inlet;
#X obj 232 40 inlet;
#X obj 133 62 slide~ 4;
#X obj 182 82 slide~ 4;
#X obj 237 72 slide~ 4;
#X obj 110 181 +~;
#X obj 147 186 +~;
#X connect 0 0 3 0;
#X connect 0 0 6 0;
#X connect 0 0 7 0;
#X connect 0 0 8 0;
#X connect 1 0 9 0;
#X connect 2 0 1 1;
#X connect 3 0 4 0;
#X connect 4 0 2 0;
#X connect 5 0 3 1;
#X connect 6 0 10 0;
#X connect 7 0 11 0;
#X connect 8 0 12 0;
#X connect 10 0 19 0;
#X connect 11 0 19 1;
#X connect 12 0 20 1;
#X connect 13 0 16 0;
#X connect 14 0 17 0;
#X connect 15 0 18 0;
#X connect 16 0 10 1;
#X connect 17 0 11 1;
#X connect 18 0 12 1;
#X connect 19 0 20 0;
#X connect 20 0 1 0;
