#N canvas 207 384 1634 687 12;
#X obj 45 142 *~;
#X obj 63 107 one-;
#X obj 111 141 *~;
#X obj 41 -19 inlet;
#X obj 72 168 +~;
#X obj 91 218 outlet~;
#X obj 155 179 clip 0 1;
#X obj 42 87 saw~;
#X obj 111 93 squ~;
#X obj 38 1 list trim;
#X obj 42 20 route freq phase;
#X text 218 14 interpolate saw and square;
#X connect 0 0 4 0;
#X connect 1 0 0 1;
#X connect 2 0 4 1;
#X connect 3 0 9 0;
#X connect 4 0 5 0;
#X connect 6 0 1 0;
#X connect 6 0 2 1;
#X connect 7 0 0 0;
#X connect 8 0 2 0;
#X connect 9 0 10 0;
#X connect 10 0 7 0;
#X connect 10 0 8 0;
#X connect 10 1 8 1;
#X connect 10 1 7 1;
#X connect 10 2 6 0;
