#N canvas 1127 349 626 255 12;
#X obj 195 48 inlet~;
#X obj 254 48 inlet~;
#X obj 309 48 inlet~;
#X obj 366 50 inlet~;
#X obj 195 72 *~;
#X obj 254 72 *~;
#X obj 309 72 *~;
#X obj 366 74 *~;
#X obj 46 41 inlet;
#X obj 136 75 == 0;
#X obj 137 100 == 1;
#X obj 136 123 == 2;
#X obj 138 145 == 3;
#X obj 220 147 outlet~;
#X connect 0 0 4 0;
#X connect 1 0 5 0;
#X connect 2 0 6 0;
#X connect 3 0 7 0;
#X connect 4 0 13 0;
#X connect 5 0 13 0;
#X connect 6 0 13 0;
#X connect 7 0 13 0;
#X connect 8 0 9 0;
#X connect 8 0 10 0;
#X connect 8 0 11 0;
#X connect 8 0 12 0;
#X connect 9 0 4 1;
#X connect 10 0 5 1;
#X connect 11 0 6 1;
#X connect 12 0 7 1;
