#N canvas 286 286 450 300 12;
#X obj 29 11 inlet;
#X obj 26 94 outlet~;
#X obj 150 32 loadbang;
#X obj 25 39 pack f f;
#X obj 26 70 line~;
#X obj 150 56 f \$1;
#X connect 0 0 3 0;
#X connect 2 0 5 0;
#X connect 3 0 4 0;
#X connect 4 0 1 0;
#X connect 5 0 3 1;
