#N canvas 727 308 699 424 12;
#X obj 75 173 expr~ if($v1 < 0 \, -1 \, 1);
#X obj 75 61 inlet;
#X obj 142 62 inlet;
#X obj 75 197 outlet~;
#X obj 73 120 osc~ 1;
#X obj 158 104 loadbang;
#X msg 158 128 0.5;
#X obj 142 86 + 0.5;
#X connect 0 0 3 0;
#X connect 1 0 4 0;
#X connect 2 0 7 0;
#X connect 4 0 0 0;
#X connect 5 0 6 0;
#X connect 6 0 4 1;
#X connect 7 0 4 1;
