#N canvas 260 260 1384 608 12;
#X obj 42 154 *~;
#X obj 58 127 one-;
#X obj 107 126 *~;
#X obj 43 -13 inlet;
#X obj 72 168 +~;
#X obj 72 192 outlet~;
#X obj 159 159 clip 0 1;
#X obj 41 4 list trim;
#X obj 42 32 route freq phase;
#X text 218 14 interpolate tri and saw;
#X obj 41 106 tri~;
#X obj 106 98 saw~;
#X connect 0 0 4 0;
#X connect 1 0 0 1;
#X connect 2 0 4 1;
#X connect 3 0 7 0;
#X connect 4 0 5 0;
#X connect 6 0 1 0;
#X connect 6 0 2 1;
#X connect 7 0 8 0;
#X connect 8 0 10 0;
#X connect 8 0 11 0;
#X connect 8 1 10 1;
#X connect 8 1 11 1;
#X connect 8 2 6 0;
#X connect 10 0 0 0;
#X connect 11 0 2 0;
