#N canvas 338 338 450 300 12;
#X obj 77 86 *~ 2;
#X obj 77 110 -~ 1;
#X obj 77 134 expr~ if($v1 < 0 \, $v1 * 2+ 1 \, (1 - $v1) *2 -1);
#X obj 74 22 inlet;
#X obj 77 62 phasor~ 1;
#X obj 77 158 outlet~;
#X obj 140 25 inlet;
#X connect 0 0 1 0;
#X connect 1 0 2 0;
#X connect 2 0 5 0;
#X connect 3 0 4 0;
#X connect 4 0 0 0;
#X connect 6 0 4 1;
